{"title":"Royal Bengal Rahasya (2011) - Bengali - Original DVD Rip","uid":7100081,"size":736978511,"categoryP":"video","categoryS":"movies","magnet":"?xt=urn:btih:7e97730d0bd2f53280093679664e3f2ca4f7ced0&amp;dn=Royal+Bengal+Rahasya+%282011%29+-+Bengali+-+Original+DVD+Rip&amp;tr=udp%3A%2F%2Ftracker.openbittorrent.com%3A80&amp;tr=udp%3A%2F%2Fopen.demonii.com%3A1337&amp;tr=udp%3A%2F%2Ftracker.coppersurfer.tk%3A6969&amp;tr=udp%3A%2F%2Fexodus.desync.com%3A6969","seeders":0,"leechers":1,"uploader":null,"files":-1,"time":1331663626,"description":"\n\n\nUploader's Note : DVD Is Out Now ! 1 CD Rip ! No Extra Watermark ! Seeding Task Will Be Delayed ! Keep Patience ! Seeding Time : - Round The Clock ! Enjoy !\n\n\n\nScreen Links : ---\n\n\n &lt;a href=&quot;\nhttp://i.imgur.com/Q6hLp.jpg&quot; rel=&quot;nofollow&quot; target=&quot;_NEW&quot;&gt;\nhttp://i.imgur.com/Q6hLp.jpg&lt;/a&gt;\n &lt;a href=&quot;\nhttp://i.imgur.com/NmRzO.jpg&quot; rel=&quot;nofollow&quot; target=&quot;_NEW&quot;&gt;\nhttp://i.imgur.com/NmRzO.jpg&lt;/a&gt;\n &lt;a href=&quot;\nhttp://i.imgur.com/2RVEd.jpg&quot; rel=&quot;nofollow&quot; target=&quot;_NEW&quot;&gt;\nhttp://i.imgur.com/2RVEd.jpg&lt;/a&gt;\n\n\n\n\nExtra Screenshots : ---\n\n\n &lt;a href=&quot;\nhttp://i.imgur.com/NQPRc.jpg&quot; rel=&quot;nofollow&quot; target=&quot;_NEW&quot;&gt;\nhttp://i.imgur.com/NQPRc.jpg&lt;/a&gt;\n &lt;a href=&quot;\nhttp://i.imgur.com/aDizG.jpg&quot; rel=&quot;nofollow&quot; target=&quot;_NEW&quot;&gt;\nhttp://i.imgur.com/aDizG.jpg&lt;/a&gt;\n &lt;a href=&quot;\nhttp://i.imgur.com/eSok6.jpg&quot; rel=&quot;nofollow&quot; target=&quot;_NEW&quot;&gt;\nhttp://i.imgur.com/eSok6.jpg&lt;/a&gt;\n &lt;a href=&quot;\nhttp://i.imgur.com/ibg3k.jpg&quot; rel=&quot;nofollow&quot; target=&quot;_NEW&quot;&gt;\nhttp://i.imgur.com/ibg3k.jpg&lt;/a&gt;\n\n\n\nGeneral Info : ---\n\n\n\nFormat/Info                      : Audio Video Interleave\nFile size                        : 700 MiB\nDuration                         : 1h 47mn\nOverall bit rate                 : 913 Kbps\n\nVideo\nID                               : 0\nFormat                           : MPEG-4 Visual\nFormat profile                   : Advanced Simple@L5\nFormat settings, BVOP            : 1\nFormat settings, QPel            : No\nFormat settings, GMC             : No warppoints\nFormat settings, Matrix          : Custom\nCodec ID                         : XVID\nCodec ID/Hint                    : XviD\nDuration                         : 1h 47mn\nBit rate                         : 785 Kbps\nWidth                            : 640 pixels\nHeight                           : 368 pixels\nDisplay aspect ratio             : 16:9\nFrame rate                       : 23.976 fps\nColor space                      : YUV\nChroma subsampling               : 4:2:0\nBit depth                        : 8 bits\nScan type                        : Progressive\nCompression mode                 : Lossy\nBits/(Pixel*Frame)               : 0.139\nStream size                      : 603 MiB (86%)\n\nAudio\nID                               : 1\nFormat                           : MPEG Audio\nFormat version                   : Version 1\nFormat profile                   : Layer 3\nMode                             : Joint stereo\nMode extension                   : MS Stereo\nCodec ID                         : 55\nCodec ID/Hint                    : MP3\nDuration                         : 1h 47mn\nBit rate mode                    : Variable\nBit rate                         : 115 Kbps\nNominal bit rate                 : 128 Kbps\nChannel(s)                       : 2 channels\nSampling rate                    : 48.0 KHz\nCompression mode                 : Lossy\nStream size                      : 88.0 MiB (13%)\nAlignment                        : Aligned on interleaves\n\n\n\n","torrent":{"xt":"urn:btih:7e97730d0bd2f53280093679664e3f2ca4f7ced0","amp;dn":"Royal+Bengal+Rahasya+%282011%29+-+Bengali+-+Original+DVD+Rip","amp;tr":["udp%3A%2F%2Ftracker.openbittorrent.com%3A80","udp%3A%2F%2Fopen.demonii.com%3A1337","udp%3A%2F%2Ftracker.coppersurfer.tk%3A6969","udp%3A%2F%2Fexodus.desync.com%3A6969"],"infoHash":"7e97730d0bd2f53280093679664e3f2ca4f7ced0","infoHashBuffer":{"type":"Buffer","data":[126,151,115,13,11,210,245,50,128,9,54,121,102,78,63,44,164,247,206,208]},"announce":[],"urlList":[]}}